PathFileType	4	(X/Y/Z)	c:/Users/goper/Files/vsCode/490R/osim_files/C15/C15_Slow_06.trc
DataRate	CameraRate	NumFrames	NumMarkers	Units                	OrigDataRate	OrigDataStartFrame	OrigNumFrames
250.00	250.00	8	36	mm	250.0	2114	2818
                Frame#	Time	LPSIS			LASIS			LTH1			LTH2			LTH3			LTH4			LLFE			LMFE			LSH1			LSH2			LSH3			LSH4			LLMAL			LMMAL			LCAL			LMTP5			LTOE			LMTP1			RPSIS			RASIS			RTH1			RTH2			RTH3			RTH4			RLFE			RMFE			RSH1			RSH2			RSH3			RSH4			RLMAL			RMMAL			RCAL			RMTP1			RTOE			RMTP5		
		X1	Y1	Z1	X2	Y2	Z2	X3	Y3	Z3	X4	Y4	Z4	X5	Y5	Z5	X6	Y6	Z6	X7	Y7	Z7	X8	Y8	Z8	X9	Y9	Z9	X10	Y10	Z10	X11	Y11	Z11	X12	Y12	Z12	X13	Y13	Z13	X14	Y14	Z14	X15	Y15	Z15	X16	Y16	Z16	X17	Y17	Z17	X18	Y18	Z18	X19	Y19	Z19	X20	Y20	Z20	X21	Y21	Z21	X22	Y22	Z22	X23	Y23	Z23	X24	Y24	Z24	X25	Y25	Z25	X26	Y26	Z26	X27	Y27	Z27	X28	Y28	Z28	X29	Y29	Z29	X30	Y30	Z30	X31	Y31	Z31	X32	Y32	Z32	X33	Y33	Z33	X34	Y34	Z34	X35	Y35	Z35	X36	Y36	Z36

2114	8.45200	-2210.46582	1023.63635	321.33932	-2383.97534	1007.21204	368.34750	-2372.37793	612.71637	429.05219	-2378.68237	569.53534	415.23355	-2419.62256	631.23883	421.90732	-2428.20483	587.44684	411.30881	-2401.47876	501.15729	389.93933	-2394.19409	488.55264	272.45050	-2348.60889	391.81595	410.70389	-2346.10278	346.11481	411.15305	-2407.29395	386.15997	399.67249	-2399.73560	342.01514	404.16306	-2349.17285	87.56812	342.69220	-2365.04639	115.33998	253.61835	-2286.77173	66.14168	298.72733	-2472.45166	45.90258	354.33862	-2524.91138	71.13145	290.58893	-2484.18066	42.28307	236.10460	-2198.39233	1015.97571	202.11023	-2345.32129	992.55945	122.80273	-2333.55811	618.48029	64.36021	-2342.09082	572.79248	69.45614	-2392.87573	625.52881	65.46245	-2394.35156	577.80090	66.59571	-2363.80737	483.78348	85.47392	-2366.75171	464.22552	206.75914	-2244.90137	463.18985	78.69649	-2212.02930	435.02267	78.46536	-2279.91187	410.13443	72.06540	-2242.50854	392.39728	72.28182	-2026.25769	253.27263	151.05020	-2075.16089	237.38206	230.59390	-1994.94092	301.87982	204.25272	-2047.49951	107.55357	240.84419	-2065.95532	77.46414	184.88400	-2002.13367	120.58662	132.65149
2115	8.45600	-2213.84766	1023.80524	321.43430	-2387.08130	1007.57568	368.79028	-2374.48096	612.83380	429.15259	-2380.48145	569.43915	415.26917	-2421.98193	631.16211	422.04395	-2429.35986	586.94275	411.06830	-2402.99438	501.01376	390.00281	-2395.45117	488.38885	272.47211	-2349.59351	391.75439	410.77042	-2347.11914	346.12546	411.26410	-2408.86255	386.21930	399.90201	-2400.74561	341.85739	404.17236	-2349.27759	87.58379	342.67410	-2365.10742	115.33284	253.53667	-2286.74170	66.10917	298.61026	-2472.51392	45.91417	354.37964	-2524.94165	71.02065	290.56906	-2484.17920	42.21364	236.05266	-2201.69946	1016.18933	202.42903	-2348.82666	993.33197	123.20117	-2339.17871	619.22906	63.78578	-2348.59058	573.74585	69.03342	-2398.98315	626.93182	65.31905	-2400.71997	579.11102	66.35360	-2370.90112	484.94528	85.20665	-2373.67456	465.48273	206.15694	-2252.21216	464.59589	78.61764	-2219.31616	436.42984	78.25523	-2287.25708	411.60782	71.90347	-2249.79883	393.79749	72.10220	-2032.82129	255.52451	151.05971	-2082.17065	239.09787	230.34325	-2002.27295	304.09030	204.76077	-2053.96655	109.29415	240.22816	-2071.59961	79.22202	183.96143	-2007.67163	123.03891	132.35535
2116	8.46000	-2216.64722	1024.15271	321.79214	-2390.10010	1007.94513	369.22778	-2376.28687	612.88708	429.89789	-2382.10645	569.40717	415.36923	-2423.71973	630.95667	421.95859	-2431.89160	587.09705	411.33542	-2404.37207	500.86020	390.09052	-2396.67212	488.22247	272.50699	-2349.73560	390.82190	410.21561	-2348.02637	346.14120	411.27585	-2410.06152	386.09814	399.96805	-2401.62842	341.68842	404.21451	-2349.38916	87.65654	342.64539	-2365.20508	115.33703	253.45461	-2286.82568	66.14449	298.59982	-2472.50146	45.90703	354.40781	-2524.97437	70.91942	290.56512	-2484.22119	42.18968	235.97639	-2204.91504	1016.67151	202.55464	-2351.96655	993.88110	123.58881	-2345.19336	620.17035	63.46748	-2356.14478	574.49402	69.08667	-2404.55029	628.39648	65.08448	-2408.08252	580.51270	66.44931	-2377.87207	486.09244	84.88995	-2380.72168	466.71423	205.94441	-2259.53149	466.00604	78.51283	-2226.76929	437.78183	78.17569	-2294.50293	413.07901	71.69700	-2256.89771	395.18182	71.85876	-2039.55969	257.65662	151.09547	-2089.19629	240.79517	230.16634	-2009.59314	306.10379	205.17903	-2060.84448	111.01520	239.59268	-2077.98560	81.00926	183.10632	-2013.76465	125.31976	132.09888
2117	8.46400	-2219.68188	1024.41321	322.03046	-2393.12549	1008.26721	369.57553	-2378.12524	612.84839	429.88858	-2383.65942	569.24719	415.26752	-2425.60132	630.85565	422.00497	-2432.93457	586.59955	411.03339	-2405.78809	500.74350	390.11432	-2397.69141	488.02301	272.57968	-2351.54565	391.76309	410.72162	-2348.79077	346.19376	411.17044	-2410.82886	385.82117	400.01175	-2402.43872	341.55228	404.20721	-2349.42065	87.68823	342.57108	-2365.29370	115.30605	253.34932	-2286.85596	66.17171	298.51752	-2472.18042	46.43356	354.96439	-2525.00171	70.81109	290.53723	-2484.27148	42.12977	235.95638	-2208.16602	1016.97101	202.74953	-2355.52588	994.44391	123.96998	-2351.32471	621.00909	63.10265	-2361.36597	575.59686	68.47626	-2410.31128	629.67987	64.75423	-2414.38843	581.92126	66.22754	-2384.74341	487.23236	84.67064	-2387.57959	467.88171	205.79457	-2266.58276	467.36993	78.40998	-2233.46289	439.36826	77.97260	-2301.64648	414.40472	71.61377	-2264.03320	396.57971	71.73631	-2046.30603	259.61932	150.93239	-2096.16772	242.40594	230.02510	-2016.55664	307.86411	205.49623	-2067.85815	112.18314	238.23070	-2084.81958	82.78563	182.28258	-2020.45850	127.37572	131.75912
2118	8.46800	-2222.68286	1024.63757	322.14093	-2396.04028	1008.53156	369.94772	-2379.97241	612.81836	429.93802	-2385.30908	569.27997	415.41296	-2427.38818	630.66724	421.94980	-2434.68921	586.45459	410.99622	-2407.10205	500.58130	390.13361	-2399.09961	488.01520	272.59842	-2352.43311	391.79312	410.59894	-2349.49487	346.21243	411.04367	-2411.78027	385.69211	400.10400	-2403.09619	341.38864	404.24930	-2349.49023	87.72783	342.49841	-2365.42383	115.30701	253.25978	-2286.79883	66.02501	298.54254	-2472.18994	46.42616	354.97815	-2525.01855	70.70973	290.52658	-2484.28857	42.10430	235.91464	-2211.33838	1017.38806	202.89043	-2358.68433	995.00775	124.18046	-2357.36621	622.02344	62.76808	-2369.02026	576.37262	68.45716	-2416.21265	631.02777	64.59819	-2420.65552	583.30786	66.11739	-2391.53931	488.41980	84.37894	-2394.46729	469.14716	205.52066	-2273.64893	468.69739	78.32896	-2241.08643	440.58807	77.88158	-2308.30859	415.99896	71.58801	-2271.04785	397.91199	71.47509	-2053.23511	261.28580	151.06476	-2102.96191	243.77789	229.48683	-2023.39771	309.35831	205.88792	-2075.17310	114.06197	238.39583	-2091.90210	84.35886	181.42656	-2027.40894	129.21780	131.31854
2119	8.47200	-2225.65552	1024.90515	322.32587	-2398.92310	1008.79767	370.35901	-2381.85571	612.98157	429.91476	-2386.99707	569.25720	415.51883	-2429.12109	630.49396	422.01355	-2436.28027	586.20789	411.02997	-2408.30078	500.40372	390.14090	-2400.14185	487.89258	272.63330	-2353.24219	391.83270	410.48737	-2350.13818	346.22369	410.91782	-2412.47534	385.46573	400.16528	-2403.69385	341.23859	404.27185	-2349.49365	87.70907	342.41336	-2365.53101	115.26677	253.16547	-2286.80054	66.02519	298.59949	-2472.17993	46.40443	355.00012	-2525.04517	70.59971	290.52673	-2484.30444	42.05925	235.89369	-2214.58667	1017.72449	203.02638	-2361.85181	995.68634	124.46558	-2363.39600	622.88141	62.43796	-2374.18115	577.61011	67.78037	-2422.15552	632.40649	64.46216	-2426.97217	584.71887	65.92655	-2398.47192	489.68021	84.18663	-2401.29053	470.42169	205.43535	-2280.63257	470.06329	78.24834	-2247.84546	441.88300	77.85287	-2315.09521	417.35199	71.49743	-2277.96680	399.20596	71.39893	-2060.02441	262.86484	151.12389	-2110.12061	245.33780	229.85927	-2030.05164	310.60916	206.14230	-2082.87866	115.37525	237.80051	-2099.45679	86.11789	180.82668	-2034.93787	130.78374	130.90260
2120	8.47600	-2228.57910	1025.14026	322.45380	-2401.86865	1009.03259	370.79150	-2383.40601	612.67450	429.97186	-2388.69214	569.28632	415.63419	-2430.90210	630.34393	422.07800	-2437.85498	585.99500	411.03741	-2409.50342	500.24896	390.20395	-2401.42554	487.84348	272.65765	-2353.75586	391.76257	410.28815	-2350.66089	346.27603	410.73129	-2413.14429	385.24374	400.19031	-2404.20020	341.06924	404.32907	-2349.55762	87.76189	342.30753	-2365.62134	115.27066	253.07199	-2286.85742	66.31827	298.45740	-2472.56982	46.08342	354.76471	-2525.08325	70.49625	290.51871	-2484.36890	42.04888	235.88588	-2217.77002	1018.17670	203.15627	-2365.04810	996.13617	124.81007	-2369.37012	623.81122	62.05183	-2380.50537	578.74835	67.29331	-2428.01318	633.84564	64.32707	-2433.18140	586.15540	65.79969	-2405.15771	490.84811	84.03980	-2407.90430	471.55249	205.24146	-2287.54663	471.37973	78.17966	-2254.72876	443.30588	77.84570	-2321.84106	418.59195	71.40448	-2284.93506	400.62396	71.32335	-2067.01172	264.25266	151.19907	-2117.15894	246.78908	229.80614	-2036.58533	311.65723	206.29044	-2090.74707	116.59831	237.33549	-2107.44067	87.74260	180.28429	-2042.72559	132.15347	130.34239
2121	8.48000	-2231.58691	1025.39478	322.60016	-2404.75024	1009.25537	371.20959	-2385.14600	612.68890	430.01636	-2389.96997	569.10272	415.55164	-2432.62451	630.13074	422.07629	-2439.37427	585.83148	411.29150	-2410.73584	500.07211	390.27661	-2402.61450	487.74719	272.72479	-2354.57983	391.86871	410.16150	-2351.09375	346.29587	410.53989	-2413.90601	385.09436	400.30063	-2404.71167	340.91574	404.36188	-2349.63208	87.78899	342.24448	-2365.74878	115.26643	252.98637	-2286.86523	66.38511	298.54111	-2472.58130	46.05645	354.80698	-2525.10205	70.41236	290.53094	-2484.40186	42.02097	235.88338	-2220.86743	1018.63318	203.20863	-2367.87939	996.39850	125.26765	-2375.27954	624.77716	61.72414	-2386.53979	579.64081	67.13467	-2433.82349	635.24115	64.15247	-2438.99658	587.76154	65.63615	-2411.88257	492.13861	83.82007	-2414.59448	472.91486	205.07982	-2294.34106	472.73914	78.10828	-2261.66626	444.59125	77.84985	-2329.39771	419.90170	71.27058	-2291.69116	401.93787	71.21197	-2073.98535	265.49200	151.25494	-2124.20337	247.99570	229.83177	-2042.99500	312.42648	206.41708	-2098.80469	117.78223	236.79231	-2115.98169	89.28011	179.64845	-2050.89478	133.29929	129.77252
